<svg width="95" height="89" viewBox="0 0 95 89" fill="none" xmlns="http://www.w3.org/2000/svg">
<g clip-path="url(#clip0_26_291)" filter="url(#filter0_d_26_291)">
<path fill-rule="evenodd" clip-rule="evenodd" d="M29.005 6.74325C35.0983 7.18478 41.4475 10.1551 47.5253 16.1665C53.6016 10.1568 59.9452 7.19211 66.0328 6.7604C72.9033 6.27308 78.9772 9.04999 83.3719 13.4311C92.0116 22.045 94.7248 37.6317 84.0039 48.3529C83.9678 48.3891 83.9306 48.4243 83.8927 48.4587L49.6112 79.5106C48.4273 80.5831 46.6232 80.5831 45.4393 79.5106L11.1577 48.4587C11.1198 48.4243 11.0828 48.3891 11.0466 48.3529C0.269629 37.5759 2.96832 21.9873 11.6366 13.3801C16.0419 9.00593 22.1281 6.24499 29.005 6.74325Z" fill="#B61400"/>
</g>
<defs>
<filter id="filter0_d_26_291" x="0" y="0" width="95" height="95" filterUnits="userSpaceOnUse" color-interpolation-filters="sRGB">
<feFlood flood-opacity="0" result="BackgroundImageFix"/>
<feColorMatrix in="SourceAlpha" type="matrix" values="0 0 0 0 0 0 0 0 0 0 0 0 0 0 0 0 0 0 127 0" result="hardAlpha"/>
<feOffset dy="4"/>
<feGaussianBlur stdDeviation="2"/>
<feComposite in2="hardAlpha" operator="out"/>
<feColorMatrix type="matrix" values="0 0 0 0 0 0 0 0 0 0 0 0 0 0 0 0 0 0 0.25 0"/>
<feBlend mode="normal" in2="BackgroundImageFix" result="effect1_dropShadow_26_291"/>
<feBlend mode="normal" in="SourceGraphic" in2="effect1_dropShadow_26_291" result="shape"/>
</filter>
<clipPath id="clip0_26_291">
<rect width="87" height="87" fill="white" transform="translate(4)"/>
</clipPath>
</defs>
</svg>
