<svg width="155" height="155" viewBox="0 0 155 155" fill="none" xmlns="http://www.w3.org/2000/svg">
<g clip-path="url(#clip0_26_192)" filter="url(#filter0_ddd_26_192)">
<path d="M67 115.5C95.995 115.5 119.5 91.995 119.5 63C119.5 34.0051 95.995 10.5 67 10.5C38.0051 10.5 14.5 34.0051 14.5 63C14.5 91.995 38.0051 115.5 67 115.5Z" fill="#8FBFFA"/>
<path fill-rule="evenodd" clip-rule="evenodd" d="M25 63C25 39.804 43.804 21 67 21C90.196 21 109 39.804 109 63C109 86.196 90.196 105 67 105C43.804 105 25 86.196 25 63ZM67 0C32.206 0 4 28.206 4 63C4 97.7939 32.206 126 67 126C80.6057 126 93.204 121.687 103.502 114.353L133.075 143.927C137.176 148.027 143.824 148.027 147.925 143.927C152.025 139.826 152.025 133.178 147.925 129.078L118.352 99.5048C125.687 89.206 130 76.6067 130 63C130 28.206 101.794 0 67 0Z" fill="#2859C5"/>
</g>
<defs>
<filter id="filter0_ddd_26_192" x="0" y="0" width="155" height="155" filterUnits="userSpaceOnUse" color-interpolation-filters="sRGB">
<feFlood flood-opacity="0" result="BackgroundImageFix"/>
<feColorMatrix in="SourceAlpha" type="matrix" values="0 0 0 0 0 0 0 0 0 0 0 0 0 0 0 0 0 0 127 0" result="hardAlpha"/>
<feOffset dy="4"/>
<feGaussianBlur stdDeviation="2"/>
<feComposite in2="hardAlpha" operator="out"/>
<feColorMatrix type="matrix" values="0 0 0 0 0 0 0 0 0 0 0 0 0 0 0 0 0 0 0.25 0"/>
<feBlend mode="normal" in2="BackgroundImageFix" result="effect1_dropShadow_26_192"/>
<feColorMatrix in="SourceAlpha" type="matrix" values="0 0 0 0 0 0 0 0 0 0 0 0 0 0 0 0 0 0 127 0" result="hardAlpha"/>
<feOffset dy="4"/>
<feGaussianBlur stdDeviation="2"/>
<feComposite in2="hardAlpha" operator="out"/>
<feColorMatrix type="matrix" values="0 0 0 0 0 0 0 0 0 0 0 0 0 0 0 0 0 0 0.25 0"/>
<feBlend mode="normal" in2="effect1_dropShadow_26_192" result="effect2_dropShadow_26_192"/>
<feColorMatrix in="SourceAlpha" type="matrix" values="0 0 0 0 0 0 0 0 0 0 0 0 0 0 0 0 0 0 127 0" result="hardAlpha"/>
<feOffset dy="4"/>
<feGaussianBlur stdDeviation="2"/>
<feComposite in2="hardAlpha" operator="out"/>
<feColorMatrix type="matrix" values="0 0 0 0 0 0 0 0 0 0 0 0 0 0 0 0 0 0 0.25 0"/>
<feBlend mode="normal" in2="effect2_dropShadow_26_192" result="effect3_dropShadow_26_192"/>
<feBlend mode="normal" in="SourceGraphic" in2="effect3_dropShadow_26_192" result="shape"/>
</filter>
<clipPath id="clip0_26_192">
<rect width="147" height="147" fill="white" transform="translate(4)"/>
</clipPath>
</defs>
</svg>
