<svg width="682" height="197" viewBox="0 0 682 197" fill="none" xmlns="http://www.w3.org/2000/svg">
<g clip-path="url(#clip0_12_158)" filter="url(#filter0_ddd_12_158)">
<path d="M282 149.5C310.995 149.5 334.5 125.995 334.5 97C334.5 68.0051 310.995 44.5 282 44.5C253.005 44.5 229.5 68.0051 229.5 97C229.5 125.995 253.005 149.5 282 149.5Z" fill="#8FBFFA"/>
<path fill-rule="evenodd" clip-rule="evenodd" d="M240 97C240 73.804 258.804 55 282 55C305.196 55 324 73.804 324 97C324 120.196 305.196 139 282 139C258.804 139 240 120.196 240 97ZM282 34C247.206 34 219 62.206 219 97C219 131.794 247.206 160 282 160C295.606 160 308.204 155.687 318.502 148.353L348.075 177.927C352.176 182.027 358.824 182.027 362.925 177.927C367.025 173.826 367.025 167.178 362.925 163.078L333.352 133.505C340.687 123.206 345 110.607 345 97C345 62.206 316.794 34 282 34Z" fill="#2859C5"/>
</g>
<g filter="url(#filter1_d_12_158)">
<path d="M95.7185 89.3543H54.0628C48.169 89.3543 46.1212 85.3693 49.5675 80.5267L70.3954 51.0679C72.8428 47.5369 76.9385 47.5369 79.3859 51.0679L100.214 80.5267C103.66 85.3693 101.612 89.3543 95.7185 89.3543Z" fill="#C336BB"/>
<path d="M102.811 129.406H46.9704C39.0788 129.406 36.3817 124.11 41.0267 117.653L60.9556 89.3544H88.826L108.755 117.653C113.4 124.11 110.703 129.406 102.811 129.406Z" fill="#C336BB"/>
<path d="M78.6368 129.406V149.584C78.6368 151.652 76.9386 153.367 74.8908 153.367C72.843 153.367 71.1448 151.652 71.1448 149.584V129.406H78.6368Z" fill="#C336BB"/>
</g>
<g clip-path="url(#clip1_12_158)" filter="url(#filter2_ddd_12_158)">
<path d="M25 160.5V97.5L77.5 45L130 97.5V160.5C130 166.299 125.299 171 119.5 171H35.5C29.7011 171 25 166.299 25 160.5Z" fill="#8FBFFA"/>
<path d="M77.8536 59.4957L77.5 59.1421L77.1464 59.4957L21.5711 115.071C17.6658 118.976 11.3342 118.976 7.42893 115.071C3.52369 111.166 3.52369 104.834 7.42893 100.929L70.4289 37.9289C74.3342 34.0237 80.6658 34.0237 84.5711 37.9289L147.571 100.929C151.476 104.834 151.476 111.166 147.571 115.071C143.666 118.976 137.334 118.976 133.429 115.071L77.8536 59.4957Z" fill="#2859C5" stroke="black"/>
<g clip-path="url(#clip2_12_158)" filter="url(#filter3_ddd_12_158)">
<path d="M25 162.5V99.5L77.5 47L130 99.5V162.5C130 168.299 125.299 173 119.5 173H35.5C29.7011 173 25 168.299 25 162.5Z" fill="#8FBFFA"/>
<path d="M77.8536 61.4957L77.5 61.1421L77.1464 61.4957L21.5711 117.071C17.6658 120.976 11.3342 120.976 7.42893 117.071C3.52369 113.166 3.52369 106.834 7.42893 102.929L70.4289 39.9289C74.3342 36.0237 80.6658 36.0237 84.5711 39.9289L147.571 102.929C151.476 106.834 151.476 113.166 147.571 117.071C143.666 120.976 137.334 120.976 133.429 117.071L77.8536 61.4957Z" fill="#2859C5" stroke="black"/>
</g>
</g>
<line x1="170.291" y1="0.271607" x2="170.291" y2="197" stroke="black" stroke-width="3"/>
<line x1="420.026" y1="0.271607" x2="420.026" y2="197" stroke="black" stroke-width="3"/>
<line x1="679.75" y1="0.271607" x2="679.75" y2="197" stroke="black" stroke-width="3"/>
<defs>
<filter id="filter0_ddd_12_158" x="215" y="34" width="155" height="155" filterUnits="userSpaceOnUse" color-interpolation-filters="sRGB">
<feFlood flood-opacity="0" result="BackgroundImageFix"/>
<feColorMatrix in="SourceAlpha" type="matrix" values="0 0 0 0 0 0 0 0 0 0 0 0 0 0 0 0 0 0 127 0" result="hardAlpha"/>
<feOffset dy="4"/>
<feGaussianBlur stdDeviation="2"/>
<feComposite in2="hardAlpha" operator="out"/>
<feColorMatrix type="matrix" values="0 0 0 0 0 0 0 0 0 0 0 0 0 0 0 0 0 0 0.25 0"/>
<feBlend mode="normal" in2="BackgroundImageFix" result="effect1_dropShadow_12_158"/>
<feColorMatrix in="SourceAlpha" type="matrix" values="0 0 0 0 0 0 0 0 0 0 0 0 0 0 0 0 0 0 127 0" result="hardAlpha"/>
<feOffset dy="4"/>
<feGaussianBlur stdDeviation="2"/>
<feComposite in2="hardAlpha" operator="out"/>
<feColorMatrix type="matrix" values="0 0 0 0 0 0 0 0 0 0 0 0 0 0 0 0 0 0 0.25 0"/>
<feBlend mode="normal" in2="effect1_dropShadow_12_158" result="effect2_dropShadow_12_158"/>
<feColorMatrix in="SourceAlpha" type="matrix" values="0 0 0 0 0 0 0 0 0 0 0 0 0 0 0 0 0 0 127 0" result="hardAlpha"/>
<feOffset dy="4"/>
<feGaussianBlur stdDeviation="2"/>
<feComposite in2="hardAlpha" operator="out"/>
<feColorMatrix type="matrix" values="0 0 0 0 0 0 0 0 0 0 0 0 0 0 0 0 0 0 0.25 0"/>
<feBlend mode="normal" in2="effect2_dropShadow_12_158" result="effect3_dropShadow_12_158"/>
<feBlend mode="normal" in="SourceGraphic" in2="effect3_dropShadow_12_158" result="shape"/>
</filter>
<filter id="filter1_d_12_158" x="13.4543" y="38.1085" width="130.873" height="132.064" filterUnits="userSpaceOnUse" color-interpolation-filters="sRGB">
<feFlood flood-opacity="0" result="BackgroundImageFix"/>
<feColorMatrix in="SourceAlpha" type="matrix" values="0 0 0 0 0 0 0 0 0 0 0 0 0 0 0 0 0 0 127 0" result="hardAlpha"/>
<feOffset dx="4" dy="5"/>
<feGaussianBlur stdDeviation="2.75"/>
<feComposite in2="hardAlpha" operator="out"/>
<feColorMatrix type="matrix" values="0 0 0 0 0.0732168 0 0 0 0 0.955 0 0 0 0 0.743372 0 0 0 0.8 0"/>
<feBlend mode="normal" in2="BackgroundImageFix" result="effect1_dropShadow_12_158"/>
<feBlend mode="normal" in="SourceGraphic" in2="effect1_dropShadow_12_158" result="shape"/>
</filter>
<filter id="filter2_ddd_12_158" x="0" y="24" width="155" height="155" filterUnits="userSpaceOnUse" color-interpolation-filters="sRGB">
<feFlood flood-opacity="0" result="BackgroundImageFix"/>
<feColorMatrix in="SourceAlpha" type="matrix" values="0 0 0 0 0 0 0 0 0 0 0 0 0 0 0 0 0 0 127 0" result="hardAlpha"/>
<feOffset dy="4"/>
<feGaussianBlur stdDeviation="2"/>
<feComposite in2="hardAlpha" operator="out"/>
<feColorMatrix type="matrix" values="0 0 0 0 0 0 0 0 0 0 0 0 0 0 0 0 0 0 0.25 0"/>
<feBlend mode="normal" in2="BackgroundImageFix" result="effect1_dropShadow_12_158"/>
<feColorMatrix in="SourceAlpha" type="matrix" values="0 0 0 0 0 0 0 0 0 0 0 0 0 0 0 0 0 0 127 0" result="hardAlpha"/>
<feOffset dy="4"/>
<feGaussianBlur stdDeviation="2"/>
<feComposite in2="hardAlpha" operator="out"/>
<feColorMatrix type="matrix" values="0 0 0 0 0 0 0 0 0 0 0 0 0 0 0 0 0 0 0.25 0"/>
<feBlend mode="normal" in2="effect1_dropShadow_12_158" result="effect2_dropShadow_12_158"/>
<feColorMatrix in="SourceAlpha" type="matrix" values="0 0 0 0 0 0 0 0 0 0 0 0 0 0 0 0 0 0 127 0" result="hardAlpha"/>
<feOffset dy="4"/>
<feGaussianBlur stdDeviation="2"/>
<feComposite in2="hardAlpha" operator="out"/>
<feColorMatrix type="matrix" values="0 0 0 0 0 0 0 0 0 0 0 0 0 0 0 0 0 0 0.25 0"/>
<feBlend mode="normal" in2="effect2_dropShadow_12_158" result="effect3_dropShadow_12_158"/>
<feBlend mode="normal" in="SourceGraphic" in2="effect3_dropShadow_12_158" result="shape"/>
</filter>
<filter id="filter3_ddd_12_158" x="0" y="26" width="155" height="155" filterUnits="userSpaceOnUse" color-interpolation-filters="sRGB">
<feFlood flood-opacity="0" result="BackgroundImageFix"/>
<feColorMatrix in="SourceAlpha" type="matrix" values="0 0 0 0 0 0 0 0 0 0 0 0 0 0 0 0 0 0 127 0" result="hardAlpha"/>
<feOffset dy="4"/>
<feGaussianBlur stdDeviation="2"/>
<feComposite in2="hardAlpha" operator="out"/>
<feColorMatrix type="matrix" values="0 0 0 0 0 0 0 0 0 0 0 0 0 0 0 0 0 0 0.25 0"/>
<feBlend mode="normal" in2="BackgroundImageFix" result="effect1_dropShadow_12_158"/>
<feColorMatrix in="SourceAlpha" type="matrix" values="0 0 0 0 0 0 0 0 0 0 0 0 0 0 0 0 0 0 127 0" result="hardAlpha"/>
<feOffset dy="4"/>
<feGaussianBlur stdDeviation="2"/>
<feComposite in2="hardAlpha" operator="out"/>
<feColorMatrix type="matrix" values="0 0 0 0 0 0 0 0 0 0 0 0 0 0 0 0 0 0 0.25 0"/>
<feBlend mode="normal" in2="effect1_dropShadow_12_158" result="effect2_dropShadow_12_158"/>
<feColorMatrix in="SourceAlpha" type="matrix" values="0 0 0 0 0 0 0 0 0 0 0 0 0 0 0 0 0 0 127 0" result="hardAlpha"/>
<feOffset dy="4"/>
<feGaussianBlur stdDeviation="2"/>
<feComposite in2="hardAlpha" operator="out"/>
<feColorMatrix type="matrix" values="0 0 0 0 0 0 0 0 0 0 0 0 0 0 0 0 0 0 0.25 0"/>
<feBlend mode="normal" in2="effect2_dropShadow_12_158" result="effect3_dropShadow_12_158"/>
<feBlend mode="normal" in="SourceGraphic" in2="effect3_dropShadow_12_158" result="shape"/>
</filter>
<clipPath id="clip0_12_158">
<rect width="147" height="147" fill="white" transform="translate(219 34)"/>
</clipPath>
<clipPath id="clip1_12_158">
<rect width="147" height="147" fill="white" transform="translate(4 24)"/>
</clipPath>
<clipPath id="clip2_12_158">
<rect width="147" height="147" fill="white" transform="translate(4 26)"/>
</clipPath>
</defs>
</svg>
