<svg width="681" height="192" viewBox="0 0 681 192" fill="none" xmlns="http://www.w3.org/2000/svg">
<path d="M281.233 135.433C280.983 135.965 280.667 136.213 280.35 136.213C280.033 136.213 279.717 135.965 279.467 135.433L271.217 117.902L272.1 116.025L272.983 114.148L281.233 131.679C281.717 132.706 281.717 134.406 281.233 135.433Z" fill="#983886"/>
<path d="M257.783 100.867L267.45 121.408C268.1 122.79 268.1 125.021 267.45 126.402L265.95 129.625C264.6 132.458 262.466 132.458 261.133 129.625L253.9 114.254C252.583 111.456 252.583 106.888 253.9 104.054L255.416 100.831C256.066 99.4855 257.133 99.4855 257.783 100.867Z" fill="#983886"/>
<path d="M277.983 104.09L271.633 117.548C270.966 118.965 269.9 118.965 269.233 117.548L259.6 97.0771C258.933 95.6604 258.933 93.3937 259.6 91.9771L265.95 78.4833C267.266 75.6854 269.416 75.6854 270.75 78.4833L277.983 93.8542C279.3 96.6875 279.3 101.221 277.983 104.09Z" fill="#983886"/>
<path d="M260.333 145.031H250.333C249.65 145.031 249.083 143.827 249.083 142.375C249.083 140.923 249.65 139.719 250.333 139.719H260.333C261.016 139.719 261.583 140.923 261.583 142.375C261.583 143.827 261.016 145.031 260.333 145.031Z" fill="#983886"/>
<g clip-path="url(#clip0_82_1275)" filter="url(#filter0_ddd_82_1275)">
<g clip-path="url(#clip1_82_1275)">
<path d="M282 147.5C310.995 147.5 334.5 123.995 334.5 95C334.5 66.0051 310.995 42.5 282 42.5C253.005 42.5 229.5 66.0051 229.5 95C229.5 123.995 253.005 147.5 282 147.5Z" fill="#8FBFFA"/>
<path fill-rule="evenodd" clip-rule="evenodd" d="M240 95C240 71.804 258.804 53 282 53C305.196 53 324 71.804 324 95C324 118.196 305.196 137 282 137C258.804 137 240 118.196 240 95ZM282 32C247.206 32 219 60.206 219 95C219 129.794 247.206 158 282 158C295.606 158 308.204 153.687 318.502 146.353L348.075 175.927C352.176 180.027 358.824 180.027 362.925 175.927C367.025 171.826 367.025 165.178 362.925 161.078L333.352 131.505C340.687 121.206 345 108.607 345 95C345 60.206 316.794 32 282 32Z" fill="#2859C5"/>
</g>
<g clip-path="url(#clip2_82_1275)" filter="url(#filter1_d_82_1275)">
<g filter="url(#filter2_ddd_82_1275)">
<path d="M282 147.5C310.995 147.5 334.5 123.995 334.5 95C334.5 66.0051 310.995 42.5 282 42.5C253.005 42.5 229.5 66.0051 229.5 95C229.5 123.995 253.005 147.5 282 147.5Z" fill="#8FBFFA"/>
<path fill-rule="evenodd" clip-rule="evenodd" d="M240 95C240 71.804 258.804 53 282 53C305.196 53 324 71.804 324 95C324 118.196 305.196 137 282 137C258.804 137 240 118.196 240 95ZM282 32C247.206 32 219 60.206 219 95C219 129.794 247.206 158 282 158C295.606 158 308.204 153.687 318.502 146.353L348.075 175.927C352.176 180.027 358.824 180.027 362.925 175.927C367.025 171.826 367.025 165.178 362.925 161.078L333.352 131.505C340.687 121.206 345 108.607 345 95C345 60.206 316.794 32 282 32Z" fill="#2859C5"/>
</g>
</g>
</g>
<g filter="url(#filter3_dd_82_1275)">
<path d="M597.947 153.048L599.023 156.271C600.889 161.865 606.131 165.638 612.034 165.638C620.208 165.638 626.567 158.541 625.665 150.427L623.546 131.384C622.128 118.633 611.338 108.986 598.493 108.986H567.908C555.063 108.986 544.273 118.633 542.854 131.384L540.736 150.427C539.833 158.541 546.193 165.638 554.367 165.638C560.27 165.638 565.511 161.865 567.378 156.271L568.453 153.048C569.707 149.289 573.229 146.754 577.196 146.754H589.204C593.171 146.754 596.693 149.289 597.947 153.048Z" fill="#2859C5"/>
<path fill-rule="evenodd" clip-rule="evenodd" d="M568 57.6923C568 75.0643 553.897 89.1472 536.5 89.1472C519.103 89.1472 505 75.0643 505 57.6923C505 40.3202 519.103 26.2373 536.5 26.2373C553.897 26.2373 568 40.3202 568 57.6923ZM529.81 129.937C531.195 117.48 538.465 106.969 548.668 101.047C544.763 100.122 540.689 99.6322 536.5 99.6322C507.505 99.6322 484 123.104 484 152.057C484 154.952 486.351 157.3 489.25 157.3H528.059C527.516 154.637 527.373 151.84 527.691 148.98L529.81 129.937Z" fill="#8FBFFA"/>
</g>
<g filter="url(#filter4_d_82_1275)">
<path d="M94.8496 88.3H53.1496C47.2496 88.3 45.1996 84.35 48.6496 79.55L69.4996 50.35C71.9496 46.85 76.0496 46.85 78.4996 50.35L99.3496 79.55C102.8 84.35 100.75 88.3 94.8496 88.3Z" fill="#B717DF" fill-opacity="0.84"/>
<path d="M101.95 128H46.05C38.15 128 35.45 122.75 40.1 116.35L60.05 88.3H87.95L107.9 116.35C112.55 122.75 109.85 128 101.95 128Z" fill="#B717DF" fill-opacity="0.84"/>
<path d="M77.75 128V148C77.75 150.05 76.05 151.75 74 151.75C71.95 151.75 70.25 150.05 70.25 148V128H77.75Z" fill="#B717DF" fill-opacity="0.84"/>
</g>
<g clip-path="url(#clip3_82_1275)" filter="url(#filter5_ddd_82_1275)">
<path d="M25 158.5V95.5L77.5 43L130 95.5V158.5C130 164.299 125.299 169 119.5 169H35.5C29.7011 169 25 164.299 25 158.5Z" fill="#8FBFFA"/>
<path d="M77.8536 57.4957L77.5 57.1421L77.1464 57.4957L21.5711 113.071C17.6658 116.976 11.3342 116.976 7.42893 113.071C3.52369 109.166 3.52369 102.834 7.42893 98.9289L70.4289 35.9289C74.3342 32.0237 80.6658 32.0237 84.5711 35.9289L147.571 98.9289C151.476 102.834 151.476 109.166 147.571 113.071C143.666 116.976 137.334 116.976 133.429 113.071L77.8536 57.4957Z" fill="#2859C5" stroke="black"/>
<g clip-path="url(#clip4_82_1275)" filter="url(#filter6_ddd_82_1275)">
<path d="M25 158.5V95.5L77.5 43L130 95.5V158.5C130 164.299 125.299 169 119.5 169H35.5C29.7011 169 25 164.299 25 158.5Z" fill="#8FBFFA"/>
<path d="M77.8536 57.4957L77.5 57.1421L77.1464 57.4957L21.5711 113.071C17.6658 116.976 11.3342 116.976 7.42893 113.071C3.52369 109.166 3.52369 102.834 7.42893 98.9289L70.4289 35.9289C74.3342 32.0237 80.6658 32.0237 84.5711 35.9289L147.571 98.9289C151.476 102.834 151.476 109.166 147.571 113.071C143.666 116.976 137.334 116.976 133.429 113.071L77.8536 57.4957Z" fill="#2859C5" stroke="black"/>
</g>
</g>
<line x1="169.5" y1="6.55671e-08" x2="169.5" y2="195" stroke="black" stroke-width="3"/>
<line x1="419.5" y1="6.55671e-08" x2="419.5" y2="195" stroke="black" stroke-width="3"/>
<line x1="679.5" y1="6.55671e-08" x2="679.5" y2="195" stroke="black" stroke-width="3"/>
<defs>
<filter id="filter0_ddd_82_1275" x="215" y="32" width="155" height="155" filterUnits="userSpaceOnUse" color-interpolation-filters="sRGB">
<feFlood flood-opacity="0" result="BackgroundImageFix"/>
<feColorMatrix in="SourceAlpha" type="matrix" values="0 0 0 0 0 0 0 0 0 0 0 0 0 0 0 0 0 0 127 0" result="hardAlpha"/>
<feOffset dy="4"/>
<feGaussianBlur stdDeviation="2"/>
<feComposite in2="hardAlpha" operator="out"/>
<feColorMatrix type="matrix" values="0 0 0 0 0 0 0 0 0 0 0 0 0 0 0 0 0 0 0.25 0"/>
<feBlend mode="normal" in2="BackgroundImageFix" result="effect1_dropShadow_82_1275"/>
<feColorMatrix in="SourceAlpha" type="matrix" values="0 0 0 0 0 0 0 0 0 0 0 0 0 0 0 0 0 0 127 0" result="hardAlpha"/>
<feOffset dy="4"/>
<feGaussianBlur stdDeviation="2"/>
<feComposite in2="hardAlpha" operator="out"/>
<feColorMatrix type="matrix" values="0 0 0 0 0 0 0 0 0 0 0 0 0 0 0 0 0 0 0.25 0"/>
<feBlend mode="normal" in2="effect1_dropShadow_82_1275" result="effect2_dropShadow_82_1275"/>
<feColorMatrix in="SourceAlpha" type="matrix" values="0 0 0 0 0 0 0 0 0 0 0 0 0 0 0 0 0 0 127 0" result="hardAlpha"/>
<feOffset dy="4"/>
<feGaussianBlur stdDeviation="2"/>
<feComposite in2="hardAlpha" operator="out"/>
<feColorMatrix type="matrix" values="0 0 0 0 0 0 0 0 0 0 0 0 0 0 0 0 0 0 0.25 0"/>
<feBlend mode="normal" in2="effect2_dropShadow_82_1275" result="effect3_dropShadow_82_1275"/>
<feBlend mode="normal" in="SourceGraphic" in2="effect3_dropShadow_82_1275" result="shape"/>
</filter>
<filter id="filter1_d_82_1275" x="215" y="32" width="155" height="155" filterUnits="userSpaceOnUse" color-interpolation-filters="sRGB">
<feFlood flood-opacity="0" result="BackgroundImageFix"/>
<feColorMatrix in="SourceAlpha" type="matrix" values="0 0 0 0 0 0 0 0 0 0 0 0 0 0 0 0 0 0 127 0" result="hardAlpha"/>
<feOffset dy="4"/>
<feGaussianBlur stdDeviation="2"/>
<feComposite in2="hardAlpha" operator="out"/>
<feColorMatrix type="matrix" values="0 0 0 0 0 0 0 0 0 0 0 0 0 0 0 0 0 0 0.25 0"/>
<feBlend mode="normal" in2="BackgroundImageFix" result="effect1_dropShadow_82_1275"/>
<feBlend mode="normal" in="SourceGraphic" in2="effect1_dropShadow_82_1275" result="shape"/>
</filter>
<filter id="filter2_ddd_82_1275" x="215" y="32" width="155" height="155.002" filterUnits="userSpaceOnUse" color-interpolation-filters="sRGB">
<feFlood flood-opacity="0" result="BackgroundImageFix"/>
<feColorMatrix in="SourceAlpha" type="matrix" values="0 0 0 0 0 0 0 0 0 0 0 0 0 0 0 0 0 0 127 0" result="hardAlpha"/>
<feOffset dy="4"/>
<feGaussianBlur stdDeviation="2"/>
<feComposite in2="hardAlpha" operator="out"/>
<feColorMatrix type="matrix" values="0 0 0 0 0 0 0 0 0 0 0 0 0 0 0 0 0 0 0.25 0"/>
<feBlend mode="normal" in2="BackgroundImageFix" result="effect1_dropShadow_82_1275"/>
<feColorMatrix in="SourceAlpha" type="matrix" values="0 0 0 0 0 0 0 0 0 0 0 0 0 0 0 0 0 0 127 0" result="hardAlpha"/>
<feOffset dy="4"/>
<feGaussianBlur stdDeviation="2"/>
<feComposite in2="hardAlpha" operator="out"/>
<feColorMatrix type="matrix" values="0 0 0 0 0 0 0 0 0 0 0 0 0 0 0 0 0 0 0.25 0"/>
<feBlend mode="normal" in2="effect1_dropShadow_82_1275" result="effect2_dropShadow_82_1275"/>
<feColorMatrix in="SourceAlpha" type="matrix" values="0 0 0 0 0 0 0 0 0 0 0 0 0 0 0 0 0 0 127 0" result="hardAlpha"/>
<feOffset dy="4"/>
<feGaussianBlur stdDeviation="2"/>
<feComposite in2="hardAlpha" operator="out"/>
<feColorMatrix type="matrix" values="0 0 0 0 0 0 0 0 0 0 0 0 0 0 0 0 0 0 0.25 0"/>
<feBlend mode="normal" in2="effect2_dropShadow_82_1275" result="effect3_dropShadow_82_1275"/>
<feBlend mode="normal" in="SourceGraphic" in2="effect3_dropShadow_82_1275" result="shape"/>
</filter>
<filter id="filter3_dd_82_1275" x="480" y="26.2373" width="149.75" height="147.401" filterUnits="userSpaceOnUse" color-interpolation-filters="sRGB">
<feFlood flood-opacity="0" result="BackgroundImageFix"/>
<feColorMatrix in="SourceAlpha" type="matrix" values="0 0 0 0 0 0 0 0 0 0 0 0 0 0 0 0 0 0 127 0" result="hardAlpha"/>
<feOffset dy="4"/>
<feGaussianBlur stdDeviation="2"/>
<feComposite in2="hardAlpha" operator="out"/>
<feColorMatrix type="matrix" values="0 0 0 0 0 0 0 0 0 0 0 0 0 0 0 0 0 0 0.25 0"/>
<feBlend mode="normal" in2="BackgroundImageFix" result="effect1_dropShadow_82_1275"/>
<feColorMatrix in="SourceAlpha" type="matrix" values="0 0 0 0 0 0 0 0 0 0 0 0 0 0 0 0 0 0 127 0" result="hardAlpha"/>
<feOffset dy="4"/>
<feGaussianBlur stdDeviation="2"/>
<feComposite in2="hardAlpha" operator="out"/>
<feColorMatrix type="matrix" values="0 0 0 0 0 0 0 0 0 0 0 0 0 0 0 0 0 0 0.25 0"/>
<feBlend mode="normal" in2="effect1_dropShadow_82_1275" result="effect2_dropShadow_82_1275"/>
<feBlend mode="normal" in="SourceGraphic" in2="effect2_dropShadow_82_1275" result="shape"/>
</filter>
<filter id="filter4_d_82_1275" x="12.5" y="37.5" width="131" height="131" filterUnits="userSpaceOnUse" color-interpolation-filters="sRGB">
<feFlood flood-opacity="0" result="BackgroundImageFix"/>
<feColorMatrix in="SourceAlpha" type="matrix" values="0 0 0 0 0 0 0 0 0 0 0 0 0 0 0 0 0 0 127 0" result="hardAlpha"/>
<feOffset dx="4" dy="5"/>
<feGaussianBlur stdDeviation="2.75"/>
<feComposite in2="hardAlpha" operator="out"/>
<feColorMatrix type="matrix" values="0 0 0 0 0.0732168 0 0 0 0 0.955 0 0 0 0 0.743372 0 0 0 0.8 0"/>
<feBlend mode="normal" in2="BackgroundImageFix" result="effect1_dropShadow_82_1275"/>
<feBlend mode="normal" in="SourceGraphic" in2="effect1_dropShadow_82_1275" result="shape"/>
</filter>
<filter id="filter5_ddd_82_1275" x="0" y="22" width="155" height="155" filterUnits="userSpaceOnUse" color-interpolation-filters="sRGB">
<feFlood flood-opacity="0" result="BackgroundImageFix"/>
<feColorMatrix in="SourceAlpha" type="matrix" values="0 0 0 0 0 0 0 0 0 0 0 0 0 0 0 0 0 0 127 0" result="hardAlpha"/>
<feOffset dy="4"/>
<feGaussianBlur stdDeviation="2"/>
<feComposite in2="hardAlpha" operator="out"/>
<feColorMatrix type="matrix" values="0 0 0 0 0 0 0 0 0 0 0 0 0 0 0 0 0 0 0.25 0"/>
<feBlend mode="normal" in2="BackgroundImageFix" result="effect1_dropShadow_82_1275"/>
<feColorMatrix in="SourceAlpha" type="matrix" values="0 0 0 0 0 0 0 0 0 0 0 0 0 0 0 0 0 0 127 0" result="hardAlpha"/>
<feOffset dy="4"/>
<feGaussianBlur stdDeviation="2"/>
<feComposite in2="hardAlpha" operator="out"/>
<feColorMatrix type="matrix" values="0 0 0 0 0 0 0 0 0 0 0 0 0 0 0 0 0 0 0.25 0"/>
<feBlend mode="normal" in2="effect1_dropShadow_82_1275" result="effect2_dropShadow_82_1275"/>
<feColorMatrix in="SourceAlpha" type="matrix" values="0 0 0 0 0 0 0 0 0 0 0 0 0 0 0 0 0 0 127 0" result="hardAlpha"/>
<feOffset dy="4"/>
<feGaussianBlur stdDeviation="2"/>
<feComposite in2="hardAlpha" operator="out"/>
<feColorMatrix type="matrix" values="0 0 0 0 0 0 0 0 0 0 0 0 0 0 0 0 0 0 0.25 0"/>
<feBlend mode="normal" in2="effect2_dropShadow_82_1275" result="effect3_dropShadow_82_1275"/>
<feBlend mode="normal" in="SourceGraphic" in2="effect3_dropShadow_82_1275" result="shape"/>
</filter>
<filter id="filter6_ddd_82_1275" x="0" y="22" width="155" height="155" filterUnits="userSpaceOnUse" color-interpolation-filters="sRGB">
<feFlood flood-opacity="0" result="BackgroundImageFix"/>
<feColorMatrix in="SourceAlpha" type="matrix" values="0 0 0 0 0 0 0 0 0 0 0 0 0 0 0 0 0 0 127 0" result="hardAlpha"/>
<feOffset dy="4"/>
<feGaussianBlur stdDeviation="2"/>
<feComposite in2="hardAlpha" operator="out"/>
<feColorMatrix type="matrix" values="0 0 0 0 0 0 0 0 0 0 0 0 0 0 0 0 0 0 0.25 0"/>
<feBlend mode="normal" in2="BackgroundImageFix" result="effect1_dropShadow_82_1275"/>
<feColorMatrix in="SourceAlpha" type="matrix" values="0 0 0 0 0 0 0 0 0 0 0 0 0 0 0 0 0 0 127 0" result="hardAlpha"/>
<feOffset dy="4"/>
<feGaussianBlur stdDeviation="2"/>
<feComposite in2="hardAlpha" operator="out"/>
<feColorMatrix type="matrix" values="0 0 0 0 0 0 0 0 0 0 0 0 0 0 0 0 0 0 0.25 0"/>
<feBlend mode="normal" in2="effect1_dropShadow_82_1275" result="effect2_dropShadow_82_1275"/>
<feColorMatrix in="SourceAlpha" type="matrix" values="0 0 0 0 0 0 0 0 0 0 0 0 0 0 0 0 0 0 127 0" result="hardAlpha"/>
<feOffset dy="4"/>
<feGaussianBlur stdDeviation="2"/>
<feComposite in2="hardAlpha" operator="out"/>
<feColorMatrix type="matrix" values="0 0 0 0 0 0 0 0 0 0 0 0 0 0 0 0 0 0 0.25 0"/>
<feBlend mode="normal" in2="effect2_dropShadow_82_1275" result="effect3_dropShadow_82_1275"/>
<feBlend mode="normal" in="SourceGraphic" in2="effect3_dropShadow_82_1275" result="shape"/>
</filter>
<clipPath id="clip0_82_1275">
<rect width="147" height="147" fill="white" transform="translate(219 32)"/>
</clipPath>
<clipPath id="clip1_82_1275">
<rect width="147" height="147" fill="white" transform="translate(219 32)"/>
</clipPath>
<clipPath id="clip2_82_1275">
<rect width="147" height="147" fill="white" transform="translate(219 32)"/>
</clipPath>
<clipPath id="clip3_82_1275">
<rect width="147" height="147" fill="white" transform="translate(4 22)"/>
</clipPath>
<clipPath id="clip4_82_1275">
<rect width="147" height="147" fill="white" transform="translate(4 22)"/>
</clipPath>
</defs>
</svg>
