<svg width="150" height="148" viewBox="0 0 150 148" fill="none" xmlns="http://www.w3.org/2000/svg">
<g filter="url(#filter0_ddd_26_234)">
<path d="M117.947 126.992L119.023 130.22C120.889 135.822 126.131 139.601 132.034 139.601C140.208 139.601 146.567 132.493 145.665 124.367L143.546 105.297C142.128 92.5276 131.338 82.8669 118.493 82.8669H87.9078C75.0632 82.8669 64.2726 92.5276 62.8542 105.297L60.7359 124.367C59.8332 132.493 66.1925 139.601 74.3667 139.601C80.2699 139.601 85.5108 135.822 87.3776 130.22L88.453 126.992C89.7074 123.228 93.2294 120.689 97.1964 120.689H109.204C113.171 120.689 116.693 123.228 117.947 126.992Z" fill="#2859C5"/>
<path fill-rule="evenodd" clip-rule="evenodd" d="M88 31.5C88 48.8969 73.8969 63 56.5 63C39.1031 63 25 48.8969 25 31.5C25 14.1031 39.1031 0 56.5 0C73.8969 0 88 14.1031 88 31.5ZM49.8095 103.848C51.1953 91.3731 58.4651 80.8476 68.6681 74.9173C64.7629 73.9906 60.6888 73.5 56.5 73.5C27.5051 73.5 4 97.0051 4 126C4 128.899 6.35051 131.25 9.25 131.25H48.0586C47.5162 128.584 47.373 125.783 47.6912 122.918L49.8095 103.848Z" fill="#8FBFFA"/>
</g>
<defs>
<filter id="filter0_ddd_26_234" x="0" y="0" width="149.75" height="147.601" filterUnits="userSpaceOnUse" color-interpolation-filters="sRGB">
<feFlood flood-opacity="0" result="BackgroundImageFix"/>
<feColorMatrix in="SourceAlpha" type="matrix" values="0 0 0 0 0 0 0 0 0 0 0 0 0 0 0 0 0 0 127 0" result="hardAlpha"/>
<feOffset dy="4"/>
<feGaussianBlur stdDeviation="2"/>
<feComposite in2="hardAlpha" operator="out"/>
<feColorMatrix type="matrix" values="0 0 0 0 0 0 0 0 0 0 0 0 0 0 0 0 0 0 0.25 0"/>
<feBlend mode="normal" in2="BackgroundImageFix" result="effect1_dropShadow_26_234"/>
<feColorMatrix in="SourceAlpha" type="matrix" values="0 0 0 0 0 0 0 0 0 0 0 0 0 0 0 0 0 0 127 0" result="hardAlpha"/>
<feOffset dy="4"/>
<feGaussianBlur stdDeviation="2"/>
<feComposite in2="hardAlpha" operator="out"/>
<feColorMatrix type="matrix" values="0 0 0 0 0 0 0 0 0 0 0 0 0 0 0 0 0 0 0.25 0"/>
<feBlend mode="normal" in2="effect1_dropShadow_26_234" result="effect2_dropShadow_26_234"/>
<feColorMatrix in="SourceAlpha" type="matrix" values="0 0 0 0 0 0 0 0 0 0 0 0 0 0 0 0 0 0 127 0" result="hardAlpha"/>
<feOffset dy="4"/>
<feGaussianBlur stdDeviation="2"/>
<feComposite in2="hardAlpha" operator="out"/>
<feColorMatrix type="matrix" values="0 0 0 0 0 0 0 0 0 0 0 0 0 0 0 0 0 0 0.25 0"/>
<feBlend mode="normal" in2="effect2_dropShadow_26_234" result="effect3_dropShadow_26_234"/>
<feBlend mode="normal" in="SourceGraphic" in2="effect3_dropShadow_26_234" result="shape"/>
</filter>
</defs>
</svg>
