<svg width="137" height="137" viewBox="0 0 137 137" fill="none" xmlns="http://www.w3.org/2000/svg">
<mask id="mask0_94_1738" style="mask-type:alpha" maskUnits="userSpaceOnUse" x="0" y="0" width="137" height="137">
<rect width="136.384" height="136.384" fill="#D9D9D9"/>
</mask>
<g mask="url(#mask0_94_1738)">
<path d="M22.7308 102.288C19.6054 102.288 16.9298 101.175 14.7041 98.9498C12.4783 96.724 11.3655 94.0484 11.3655 90.923V45.4615C11.3655 42.3361 12.4783 39.6605 14.7041 37.4348C16.9298 35.209 19.6054 34.0962 22.7308 34.0962H113.654C116.779 34.0962 119.455 35.209 121.68 37.4348C123.906 39.6605 125.019 42.3361 125.019 45.4615V90.923C125.019 94.0484 123.906 96.724 121.68 98.9498C119.455 101.175 116.779 102.288 113.654 102.288H22.7308ZM22.7308 90.923H113.654V45.4615H22.7308V90.923ZM39.7789 85.2403H51.1442V73.8749H62.5096V62.5096H51.1442V51.1442H39.7789V62.5096H28.4135V73.8749H39.7789V85.2403ZM82.399 85.2403C84.7667 85.2403 86.7794 84.4116 88.4368 82.7541C90.0943 81.0967 90.923 79.0841 90.923 76.7163C90.923 74.3485 90.0943 72.3359 88.4368 70.6784C86.7794 69.021 84.7667 68.1923 82.399 68.1923C80.0312 68.1923 78.0186 69.021 76.3611 70.6784C74.7037 72.3359 73.8749 74.3485 73.8749 76.7163C73.8749 79.0841 74.7037 81.0967 76.3611 82.7541C78.0186 84.4116 80.0312 85.2403 82.399 85.2403ZM99.447 68.1923C101.815 68.1923 103.827 67.3635 105.485 65.7061C107.142 64.0486 107.971 62.036 107.971 59.6682C107.971 57.3005 107.142 55.2878 105.485 53.6304C103.827 51.9729 101.815 51.1442 99.447 51.1442C97.0792 51.1442 95.0666 51.9729 93.4091 53.6304C91.7517 55.2878 90.923 57.3005 90.923 59.6682C90.923 62.036 91.7517 64.0486 93.4091 65.7061C95.0666 67.3635 97.0792 68.1923 99.447 68.1923Z" fill="#B61400"/>
</g>
</svg>
